<?xml version="1.0" encoding="UTF-8" standalone="no"?>
<!DOCTYPE svg PUBLIC "-//W3C//DTD SVG 1.1//EN" "http://www.w3.org/Graphics/SVG/1.1/DTD/svg11.dtd">
<svg width="100%" height="100%" viewBox="0 0 552 352" version="1.1" xmlns="http://www.w3.org/2000/svg" xmlns:xlink="http://www.w3.org/1999/xlink" xml:space="preserve" xmlns:serif="http://www.serif.com/" style="fill-rule:evenodd;clip-rule:evenodd;stroke-linecap:round;stroke-linejoin:round;stroke-miterlimit:1.5;">
    <g transform="matrix(1,0,0,1,-285.85,-361.472)">
        <g transform="matrix(0.797493,0,0,1,149.635,-3.64997)">
            <path d="M533.838,683.358L529,676.676C528.758,676.341 528.605,675.984 528.537,675.623C524.242,667.134 523.335,651.93 523.475,639.098L470.518,565.95C466.358,560.203 468.831,552.844 476.037,549.526C483.243,546.208 492.471,548.18 496.632,553.927L549.588,627.075C556.807,630.333 564.572,634.098 571.37,637.969L538.309,675.472C536.173,677.895 534.678,680.574 533.838,683.358ZM571.37,637.969L641.988,557.866C647.419,551.705 656.271,548.039 665.714,548.039C675.158,548.039 684.01,551.705 689.441,557.866L767.688,646.624L767.129,647.396C751.64,654.385 733.64,663.71 728.065,671.411C718.724,684.314 724.275,700.838 740.455,708.288C756.635,715.737 777.355,711.31 786.696,698.406C790.291,693.441 792.036,684.569 792.781,675.088L793.119,675.472C799.346,682.534 800.122,691.774 795.132,699.435C790.143,707.097 780.218,711.905 769.393,711.905L562.036,711.905C551.21,711.905 541.286,707.097 536.296,699.435C533.019,694.403 532.229,688.689 533.838,683.358L553.022,709.857C554.06,711.291 556.363,711.783 558.161,710.955L564.676,707.955C566.474,707.127 567.091,705.291 566.053,703.857L548.992,680.29C552.424,679.519 556.052,678.407 559.671,677.05L575.822,699.359C576.86,700.793 579.163,701.285 580.961,700.457L587.476,697.457C589.274,696.629 589.891,694.793 588.853,693.359L572.702,671.05C575.986,669.229 579.007,667.279 581.561,665.295L598.75,689.038C599.788,690.472 602.091,690.964 603.889,690.137L610.405,687.137C612.203,686.309 612.82,684.472 611.782,683.038L587.76,649.857C587.545,649.56 587.275,649.303 586.968,649.091C583.565,645.523 577.916,641.697 571.37,637.969ZM767.688,646.624L834.797,553.927C838.957,548.18 848.186,546.208 855.392,549.526C862.598,552.844 865.071,560.203 860.91,565.95L793.243,659.419C793.298,664.459 793.191,669.866 792.781,675.088L767.688,646.624ZM706.191,615.539C703.624,615.539 701.54,617.201 701.54,619.249C701.54,621.296 703.624,622.958 706.191,622.958C708.758,622.958 710.843,621.296 710.843,619.249C710.843,617.201 708.758,615.539 706.191,615.539ZM626.389,619.954C623.822,619.954 621.737,621.616 621.737,623.663C621.737,625.711 623.822,627.373 626.389,627.373C628.956,627.373 631.04,625.711 631.04,623.663C631.04,621.616 628.956,619.954 626.389,619.954ZM627.422,661.355L616.782,652.869L611.462,657.112L622.102,665.597L627.422,661.355ZM719.976,629.413L714.656,633.656L725.296,642.141L730.616,637.898L719.976,629.413ZM649.465,640.545C646.898,640.545 644.813,642.207 644.813,644.255C644.813,646.302 646.898,647.964 649.465,647.964C652.032,647.964 654.116,646.302 654.116,644.255C654.116,642.207 652.032,640.545 649.465,640.545ZM687.234,616.301C684.667,616.301 682.583,617.963 682.583,620.01C682.583,622.057 684.667,623.719 687.234,623.719C689.802,623.719 691.886,622.057 691.886,620.01C691.886,617.963 689.802,616.301 687.234,616.301ZM669.514,564.958L658.857,573.457L664.177,577.7L674.834,569.201L669.514,564.958ZM673.193,606.525L667.873,602.282L657.233,610.768L662.553,615.01L673.193,606.525ZM703.357,673.338L692.717,664.853L687.397,669.096L698.037,677.581L703.357,673.338ZM626.649,591.089C624.082,591.089 621.998,592.751 621.998,594.798C621.998,596.845 624.082,598.508 626.649,598.508C629.216,598.508 631.3,596.845 631.3,594.798C631.3,592.751 629.216,591.089 626.649,591.089Z"/>
        </g>
        <g transform="matrix(1,0,0,1,-36.6666,-21.4762)">
            <g transform="matrix(1,0,0,1,17.2617,5.9977)">
                <path d="M597.49,487.791C572.366,444.274 525.934,417.467 475.686,417.467C398.06,417.467 335.038,480.489 335.038,558.114C335.038,635.74 398.06,698.762 475.686,698.762C500.375,698.762 524.628,692.263 546.009,679.919C524.628,692.263 500.375,698.762 475.686,698.762C398.06,698.762 335.038,635.74 335.038,558.114C335.038,480.489 398.06,417.467 475.686,417.467C525.934,417.467 572.366,444.274 597.49,487.791Z" style="fill:rgb(235,235,235);stroke:black;stroke-width:59.57px;"/>
            </g>
            <g transform="matrix(2.14231,0,0,2.14231,-537.623,-473.806)">
                <circle cx="447.571" cy="419.35" r="7.607" style="fill:rgb(235,235,235);stroke:black;stroke-width:4.67px;"/>
            </g>
            <g transform="matrix(2.14231,0,0,2.14231,-493.816,-494.133)">
                <circle cx="447.571" cy="419.35" r="7.607" style="fill:rgb(235,235,235);stroke:black;stroke-width:4.67px;"/>
            </g>
        </g>
    </g>
</svg>
